 <svg
            width="123"
            height="135"
            viewBox="0 0 123 135"
            fill="none"
            xmlns="http://www.w3.org/2000/svg"
          >
            <path
              fillRule="evenodd"
              clipRule="evenodd"
              d="M71.1371 80.6002C72.7697 83.1342 75.1759 84.9764 78.5043 85.7308C88.8008 88.0641 95.9347 82.7909 100.571 74.3854C107.342 62.1116 108.7 43.074 106.958 32.2487C106.876 31.736 106.418 31.3778 105.939 31.4476C105.458 31.5162 105.134 31.9874 105.216 32.5001C106.908 43.0069 105.608 61.487 99.0383 73.3993C94.7805 81.1172 88.2707 86.0439 78.8138 83.8994C75.9989 83.2633 73.973 81.7016 72.5876 79.5627C73.861 78.6308 75.0915 77.6721 76.2761 76.6875C79.5453 73.9687 86.632 65.2975 89.27 57.4701C91.161 51.8545 90.7668 46.6793 85.7675 44.0335C82.9884 42.5636 80.1558 43.2222 77.5917 45.3662C74.0649 48.3114 71.0335 54.1614 69.4842 60.5311C68.1934 65.8341 67.927 71.4855 69.1808 76.0859C69.4583 77.0965 69.8045 78.0589 70.2293 78.9574C52.3249 91.5173 26.9283 98.3805 5.67156 95.327C5.18705 95.2593 4.75345 95.6157 4.70586 96.1292C4.65627 96.6416 5.01121 97.1133 5.49473 97.1831C27.0984 100.285 52.9003 93.3416 71.1371 80.6002ZM71.6907 77.9075C72.8855 77.0289 74.0413 76.1256 75.1553 75.1987C78.2873 72.5922 85.076 64.2854 87.6032 56.7856C89.1547 52.1832 89.1213 47.8705 85.0241 45.7019C82.8717 44.5643 80.7017 45.1934 78.7145 46.8508C76.5304 48.6766 74.5774 51.7161 73.0822 55.2879C70.8121 60.7107 69.6043 67.3626 70.3503 72.9735C70.5858 74.7512 71.0214 76.4229 71.6907 77.9075Z"
              fill="url(#paint0_linear_1_1491)"
            />
            <path
              fillRule="evenodd"
              clipRule="evenodd"
              d="M32.6744 76.3647C26.4609 85.1435 15.4611 92.0189 5.50152 95.4584C5.04347 95.6165 4.80653 96.1445 4.97215 96.636C5.13777 97.1274 5.64373 97.3996 6.10179 97.2415C16.3731 93.6956 27.6941 86.5719 34.1003 77.5222C34.3873 77.1173 34.3012 76.5284 33.9068 76.2084C33.5143 75.8895 32.9614 75.9598 32.6744 76.3647Z"
              fill="#FBFBFB"
            />
            <path
              fillRule="evenodd"
              clipRule="evenodd"
              d="M6.12123 97.4726C14.8788 97.2668 25.6111 102.608 32.2588 108.965C32.6274 109.318 33.1864 109.298 33.5044 108.919C33.8244 108.54 33.7851 107.949 33.4165 107.596C26.4522 100.937 15.1942 95.386 6.01912 95.6015C5.53281 95.6119 5.16002 96.0422 5.18718 96.5583C5.21633 97.0756 5.63393 97.4851 6.12123 97.4726Z"
              fill="#FBFBFB"
            />
            <defs>
              <linearGradient
                id="paint0_linear_1_1491"
                x1="38.1273"
                y1="115.656"
                x2="118.432"
                y2="16.4955"
                gradientUnits="userSpaceOnUse"
              >
                <stop stop-color="#FBFBFB" />
                <stop offset="1" stop-color="#FBFBFB" stop-opacity="0" />
              </linearGradient>
            </defs>
          </svg>